<svg id="Layer_1" data-name="Layer 1" xmlns="http://www.w3.org/2000/svg" viewBox="0 0 522.51 88.03"><defs><style>.cls-1{fill:#8e2a46;fill-rule:evenodd;}.cls-2{fill:#575656;}</style></defs><path class="cls-1" d="M44.71,83.58C57.25,78.47,66.38,65,66.38,44S57.25,9.56,44.71,4.45a39.57,39.57,0,0,1,0,79.13M42.29,44V83.54a39.57,39.57,0,0,1,0-79.06ZM44,1A43,43,0,1,1,1,44,43.1,43.1,0,0,1,44,1Z"/><path class="cls-2" d="M511,63V49.08l-7.23-18.37h3.44l5.53,14.67,5.39-14.67h3.39l-7.13,18.37V63Zm-21,0V33.47h-6.46V30.71h16.19v2.76h-6.47V63Zm-17.25,0V30.71h3.3V63Zm-24.84-8.56h3.12a8,8,0,0,0,1.43,4.68,4.51,4.51,0,0,0,3.7,1.52,4.35,4.35,0,0,0,3.42-1.46,5.61,5.61,0,0,0,1.31-3.88,6.66,6.66,0,0,0-1.22-3.87,23.38,23.38,0,0,0-5-4.57,19.84,19.84,0,0,1-5-4.81,8.78,8.78,0,0,1-1.22-4.66,7.1,7.1,0,0,1,2-5.18,6.86,6.86,0,0,1,5.11-2.08,7.3,7.3,0,0,1,5.69,2.3,9.8,9.8,0,0,1,2.2,6.44h-3A8.18,8.18,0,0,0,459,34.35a4,4,0,0,0-3.32-1.5,4.23,4.23,0,0,0-3.17,1.22,4.52,4.52,0,0,0-1.17,3.27,5.13,5.13,0,0,0,.42,2,5.67,5.67,0,0,0,1.15,1.78,27.6,27.6,0,0,0,3.28,2.77C457.67,45,458.59,45.7,459,46a15.67,15.67,0,0,1,3.89,4.32A9.74,9.74,0,0,1,464,55.11a8.64,8.64,0,0,1-2.18,6.15,8.46,8.46,0,0,1-11.72-.08A10.09,10.09,0,0,1,447.94,54.39ZM424.31,63V30.71h5.87q5.24,0,7.83,2.1c1.71,1.4,2.58,3.52,2.58,6.36a8.86,8.86,0,0,1-1.31,4.95,7,7,0,0,1-3.78,2.78L440.77,63H437.2l-4.86-15.34-2.07.07-1.38,0h-1.28V63Zm3.3-18.15h2.81a7.62,7.62,0,0,0,5-1.4,5.22,5.22,0,0,0,1.66-4.22A5.24,5.24,0,0,0,435.42,35a7.59,7.59,0,0,0-5-1.4h-2.81ZM401.65,63V30.71h14.5v3H405V44.8h8.21v2.94H405V60h11.6v3ZM384,63l-7.36-32.24h3.3l4.82,22c.17.67.39,2.06.68,4.17.06.39.1.68.13.87.17-1,.34-2,.5-2.8s.32-1.61.48-2.36l4.77-21.86h3.16L387.12,63Zm-18,0V30.71h3.31V63ZM344.67,40.66c-.46-1.21-.88-2.43-1.29-3.67s-.79-2.5-1.17-3.78V63h-2.9V30.71h4.82L350.79,49c.5,1.46,1,2.85,1.41,4.17s.83,2.62,1.2,3.87c-.09-1-.15-1.94-.2-3s-.06-2.38-.06-4.1V30.71H356V63h-3.24Zm-31.41,11v-21h3.3V51.36c0,3.89.34,6.4,1,7.56s2,1.71,3.78,1.71a4,4,0,0,0,3.73-1.75c.7-1.17,1-3.67,1-7.52V30.71h3.3v21a34.91,34.91,0,0,1-.38,6.12,7.43,7.43,0,0,1-1.3,3.07,6.78,6.78,0,0,1-2.7,2,9.37,9.37,0,0,1-3.69.71,9.5,9.5,0,0,1-3.73-.71,6.61,6.61,0,0,1-2.69-2,6.87,6.87,0,0,1-1.32-3A34,34,0,0,1,313.26,51.67ZM286.78,63V33.47h-6.47V30.71H296.5v2.76H290V63Zm-28.72-8.56h3.12a8,8,0,0,0,1.43,4.68,4.53,4.53,0,0,0,3.71,1.52,4.34,4.34,0,0,0,3.41-1.46A5.61,5.61,0,0,0,271,55.25a6.65,6.65,0,0,0-1.21-3.87,23.24,23.24,0,0,0-5-4.57,20.2,20.2,0,0,1-5-4.81,8.78,8.78,0,0,1-1.22-4.66,7.1,7.1,0,0,1,2-5.18,6.84,6.84,0,0,1,5.11-2.08,7.28,7.28,0,0,1,5.68,2.3,9.8,9.8,0,0,1,2.2,6.44h-3a8.18,8.18,0,0,0-1.4-4.47,4,4,0,0,0-3.31-1.5,4.22,4.22,0,0,0-3.17,1.22,4.52,4.52,0,0,0-1.17,3.27,5.3,5.3,0,0,0,.41,2,5.86,5.86,0,0,0,1.15,1.78,28.45,28.45,0,0,0,3.28,2.77c1.46,1.09,2.37,1.78,2.75,2.08a15.57,15.57,0,0,1,3.9,4.32,9.74,9.74,0,0,1,1.17,4.79A8.64,8.64,0,0,1,272,61.26a8.46,8.46,0,0,1-11.72-.08A10.14,10.14,0,0,1,258.06,54.39ZM233.36,63l7-32.24h4.56L252,63h-3.48l-1.88-9.5h-8.11L236.6,63Zm5.83-12.53h6.74l-3.39-16.87ZM213,63V30.71h14.49v3H216.32V44.8h8.21v2.94h-8.21V60h11.6v3Zm-34.37,0V30.71h5.87q5.25,0,7.83,2.1t2.58,6.36a8.86,8.86,0,0,1-1.31,4.95,7,7,0,0,1-3.78,2.78L195.11,63h-3.57l-4.86-15.34-2.07.07-1.37,0H182V63ZM182,44.8h2.81a7.6,7.6,0,0,0,5-1.4,5.23,5.23,0,0,0,1.67-4.22A5.21,5.21,0,0,0,189.76,35a7.59,7.59,0,0,0-5-1.4H182ZM152.65,63l7-32.24h4.55L171.25,63h-3.49l-1.87-9.5h-8.12L155.9,63Zm5.84-12.53h6.73l-3.38-16.87ZM132.31,63V30.71h14.5v3H135.62V44.8h8.2v2.94h-8.2V60h11.59v3ZM111.06,40.66c-.46-1.21-.88-2.43-1.29-3.67s-.79-2.5-1.17-3.78V63h-2.9V30.71h4.82L117.18,49c.5,1.46,1,2.85,1.41,4.17s.83,2.62,1.19,3.87c-.08-1-.14-1.94-.19-3s-.07-2.38-.07-4.1V30.71h2.9V63h-3.24Z"/></svg>